<svg xmlns="http://www.w3.org/2000/svg" width="960" height="482" viewBox="0 0 960 482" role="img" aria-labelledby="title desc"><title id="title">时间反向传播中的梯度尺度</title><desc id="desc">对数纵轴上，回传 k 步后的梯度尺度为 λ 的 k 次方。λ=1.2 时 20 步后放大约 38 倍；λ=0.8 时缩小到约 0.012；λ=0.5 时缩小到约 10⁻⁶。</desc><defs><marker id="arrow" viewBox="0 0 10 10" refX="8" refY="5" markerWidth="6" markerHeight="6" orient="auto"><path d="M1 1 9 5 1 9" fill="none" stroke="#708794" stroke-width="1.6"/></marker><marker id="arrowW" viewBox="0 0 10 10" refX="8" refY="5" markerWidth="6" markerHeight="6" orient="auto"><path d="M1 1 9 5 1 9" fill="none" stroke="#a88f63" stroke-width="1.6"/></marker><marker id="arrowG" viewBox="0 0 10 10" refX="8" refY="5" markerWidth="6" markerHeight="6" orient="auto"><path d="M1 1 9 5 1 9" fill="none" stroke="#5f8a6f" stroke-width="1.6"/></marker><marker id="arrowR" viewBox="0 0 10 10" refX="8" refY="5" markerWidth="6" markerHeight="6" orient="auto"><path d="M1 1 9 5 1 9" fill="none" stroke="#b0735e" stroke-width="1.6"/></marker><marker id="arrowB" viewBox="0 0 10 10" refX="8" refY="5" markerWidth="6" markerHeight="6" orient="auto"><path d="M1 1 9 5 1 9" fill="none" stroke="#6f8ea3" stroke-width="1.6"/></marker><style>text{font-family:"Segoe UI","Microsoft YaHei","PingFang SC",sans-serif}</style></defs><rect x="0" y="0" width="960" height="482" rx="14" fill="#fcfcfa" stroke="none"/><text x="38" y="44" font-size="24" fill="#293e4b" text-anchor="start" font-weight="650">时间反向传播中的梯度尺度</text><text x="38" y="74" font-size="17" fill="#71838b" text-anchor="start" font-weight="400">梯度每回传一步乘一个雅可比矩阵；设其范数为常数 λ</text><rect x="110" y="96" width="560" height="290" rx="6" fill="#f6f7f4" stroke="none"/><path d="M110 349.8L670 349.8" fill="none" stroke="#e0e5e6" stroke-width="1" stroke-linecap="round" stroke-linejoin="round" stroke-dasharray="3 4"/><text x="100" y="354.8" font-size="13" fill="#9aa7ad" text-anchor="end" font-weight="400">10⁻⁴</text><path d="M110 277.3L670 277.3" fill="none" stroke="#e0e5e6" stroke-width="1" stroke-linecap="round" stroke-linejoin="round" stroke-dasharray="3 4"/><text x="100" y="282.3" font-size="13" fill="#9aa7ad" text-anchor="end" font-weight="400">10⁻²</text><path d="M110 204.8L670 204.8" fill="none" stroke="#e0e5e6" stroke-width="1" stroke-linecap="round" stroke-linejoin="round" stroke-dasharray="3 4"/><text x="100" y="209.8" font-size="13" fill="#9aa7ad" text-anchor="end" font-weight="400">10⁰</text><path d="M110 132.3L670 132.3" fill="none" stroke="#e0e5e6" stroke-width="1" stroke-linecap="round" stroke-linejoin="round" stroke-dasharray="3 4"/><text x="100" y="137.3" font-size="13" fill="#9aa7ad" text-anchor="end" font-weight="400">10²</text><text x="110" y="408.6" font-size="13" fill="#9aa7ad" text-anchor="middle" font-weight="400">0</text><text x="250" y="408.6" font-size="13" fill="#9aa7ad" text-anchor="middle" font-weight="400">5</text><text x="390" y="408.6" font-size="13" fill="#9aa7ad" text-anchor="middle" font-weight="400">10</text><text x="530" y="408.6" font-size="13" fill="#9aa7ad" text-anchor="middle" font-weight="400">15</text><text x="670" y="408.6" font-size="13" fill="#9aa7ad" text-anchor="middle" font-weight="400">20</text><text x="390" y="432.9" font-size="14" fill="#5c747d" text-anchor="middle" font-weight="400">回传的时间步数 k</text><path d="M110 204.8L119.3 203.8L128.7 202.8L138 201.9L147.3 200.9L156.7 200L166 199L175.3 198.1L184.7 197.1L194 196.1L203.3 195.2L212.7 194.2L222 193.3L231.3 192.3L240.7 191.4L250 190.4L259.3 189.4L268.7 188.5L278 187.5L287.3 186.6L296.7 185.6L306 184.7L315.3 183.7L324.7 182.7L334 181.8L343.3 180.8L352.7 179.9L362 178.9L371.3 178L380.7 177L390 176L399.3 175.1L408.7 174.1L418 173.2L427.3 172.2L436.7 171.3L446 170.3L455.3 169.3L464.7 168.4L474 167.4L483.3 166.5L492.7 165.5L502 164.6L511.3 163.6L520.7 162.7L530 161.7L539.3 160.7L548.7 159.8L558 158.8L567.3 157.9L576.7 156.9L586 156L595.3 155L604.7 154L614 153.1L623.3 152.1L632.7 151.2L642 150.2L651.3 149.3L660.7 148.3L670 147.3" fill="none" stroke="#a4604b" stroke-width="2.6" stroke-linecap="round" stroke-linejoin="round"/><text x="678" y="152.3" font-size="13" fill="#a4604b" text-anchor="start" font-weight="400"></text><path d="M110 204.8L119.3 204.8L128.7 204.8L138 204.8L147.3 204.8L156.7 204.8L166 204.8L175.3 204.8L184.7 204.8L194 204.8L203.3 204.8L212.7 204.8L222 204.8L231.3 204.8L240.7 204.8L250 204.8L259.3 204.8L268.7 204.8L278 204.8L287.3 204.8L296.7 204.8L306 204.8L315.3 204.8L324.7 204.8L334 204.8L343.3 204.8L352.7 204.8L362 204.8L371.3 204.8L380.7 204.8L390 204.8L399.3 204.8L408.7 204.8L418 204.8L427.3 204.8L436.7 204.8L446 204.8L455.3 204.8L464.7 204.8L474 204.8L483.3 204.8L492.7 204.8L502 204.8L511.3 204.8L520.7 204.8L530 204.8L539.3 204.8L548.7 204.8L558 204.8L567.3 204.8L576.7 204.8L586 204.8L595.3 204.8L604.7 204.8L614 204.8L623.3 204.8L632.7 204.8L642 204.8L651.3 204.8L660.7 204.8L670 204.8" fill="none" stroke="#4a6a80" stroke-width="2.6" stroke-linecap="round" stroke-linejoin="round"/><text x="678" y="209.8" font-size="13" fill="#4a6a80" text-anchor="start" font-weight="400"></text><path d="M110 204.8L119.3 205.9L128.7 207.1L138 208.3L147.3 209.4L156.7 210.6L166 211.8L175.3 212.9L184.7 214.1L194 215.3L203.3 216.5L212.7 217.6L222 218.8L231.3 220L240.7 221.1L250 222.3L259.3 223.5L268.7 224.7L278 225.8L287.3 227L296.7 228.2L306 229.3L315.3 230.5L324.7 231.7L334 232.9L343.3 234L352.7 235.2L362 236.4L371.3 237.5L380.7 238.7L390 239.9L399.3 241.1L408.7 242.2L418 243.4L427.3 244.6L436.7 245.7L446 246.9L455.3 248.1L464.7 249.2L474 250.4L483.3 251.6L492.7 252.8L502 253.9L511.3 255.1L520.7 256.3L530 257.4L539.3 258.6L548.7 259.8L558 261L567.3 262.1L576.7 263.3L586 264.5L595.3 265.6L604.7 266.8L614 268L623.3 269.2L632.7 270.3L642 271.5L651.3 272.7L660.7 273.8L670 275" fill="none" stroke="#8f7857" stroke-width="2.6" stroke-linecap="round" stroke-linejoin="round"/><text x="678" y="280" font-size="13" fill="#8f7857" text-anchor="start" font-weight="400"></text><path d="M110 204.8L119.3 208.4L128.7 212L138 215.7L147.3 219.3L156.7 222.9L166 226.6L175.3 230.2L184.7 233.8L194 237.5L203.3 241.1L212.7 244.8L222 248.4L231.3 252L240.7 255.7L250 259.3L259.3 262.9L268.7 266.6L278 270.2L287.3 273.9L296.7 277.5L306 281.1L315.3 284.8L324.7 288.4L334 292L343.3 295.7L352.7 299.3L362 303L371.3 306.6L380.7 310.2L390 313.9L399.3 317.5L408.7 321.1L418 324.8L427.3 328.4L436.7 332.1L446 335.7L455.3 339.3L464.7 343L474 346.6L483.3 350.2L492.7 353.9L502 357.5L511.3 361.2L520.7 364.8L530 368.4L539.3 372.1L548.7 375.7L558 379.3L567.3 383L576.7 386L586 386L595.3 386L604.7 386L614 386L623.3 386L632.7 386L642 386L651.3 386L660.7 386L670 386" fill="none" stroke="#8a979d" stroke-width="2.6" stroke-linecap="round" stroke-linejoin="round"/><text x="678" y="391" font-size="13" fill="#8a979d" text-anchor="start" font-weight="400"></text><rect x="700" y="108" width="222" height="46" rx="8" fill="#f6ebe7" stroke="#c99787"/><text x="716" y="126" font-size="15" fill="#a4604b" text-anchor="start" font-weight="650">λ = 1.2，梯度爆炸</text><text x="716" y="146" font-size="13" fill="#71838b" text-anchor="start" font-weight="400">λ²⁰ ≈ 38.3</text><rect x="700" y="164" width="222" height="46" rx="8" fill="#e8eff5" stroke="#9eb4c4"/><text x="716" y="182" font-size="15" fill="#4a6a80" text-anchor="start" font-weight="650">λ = 1.0</text><text x="716" y="202" font-size="13" fill="#71838b" text-anchor="start" font-weight="400">λ²⁰ ≈ 1.0</text><rect x="700" y="220" width="222" height="46" rx="8" fill="#f1f0e9" stroke="#b9a98a"/><text x="716" y="238" font-size="15" fill="#8f7857" text-anchor="start" font-weight="650">λ = 0.8，梯度消失</text><text x="716" y="258" font-size="13" fill="#71838b" text-anchor="start" font-weight="400">λ²⁰ ≈ 0.012</text><rect x="700" y="276" width="222" height="46" rx="8" fill="#f3f4f2" stroke="#c9d0d3"/><text x="716" y="294" font-size="15" fill="#8a979d" text-anchor="start" font-weight="650">λ = 0.5</text><text x="716" y="314" font-size="13" fill="#71838b" text-anchor="start" font-weight="400">λ²⁰ ≈ 9.5 × 10⁻⁷</text><text x="38" y="460" font-size="15" fill="#71838b" text-anchor="start" font-weight="400">LSTM、GRU 与第 09 章的残差连接都引入近似加法的路径，使梯度不必只经过连乘，从而缓解梯度消失；梯度爆炸通常用梯度裁剪应对。</text></svg>