<svg xmlns="http://www.w3.org/2000/svg" width="1100" height="650" viewBox="0 0 1100 650" role="img" font-family="Arial, sans-serif">
<rect width="100%" height="100%" fill="#ffffff"/>
<text x="550.000" y="32.000" font-size="22" fill="#243248" text-anchor="middle" font-weight="bold">Finite rotation and first-order tangent update</text>
<line x1="97.727" y1="130.000" x2="97.727" y2="520.000" stroke="#e8ecf1" stroke-width="1"/>
<text x="97.727" y="544.000" font-size="14" fill="#243248" text-anchor="middle" font-weight="normal">-2</text>
<line x1="275.000" y1="130.000" x2="275.000" y2="520.000" stroke="#e8ecf1" stroke-width="1"/>
<text x="275.000" y="544.000" font-size="14" fill="#243248" text-anchor="middle" font-weight="normal">0</text>
<line x1="452.273" y1="130.000" x2="452.273" y2="520.000" stroke="#e8ecf1" stroke-width="1"/>
<text x="452.273" y="544.000" font-size="14" fill="#243248" text-anchor="middle" font-weight="normal">2</text>
<line x1="80.000" y1="502.273" x2="470.000" y2="502.273" stroke="#e8ecf1" stroke-width="1"/>
<text x="70.000" y="507.273" font-size="14" fill="#243248" text-anchor="end" font-weight="normal">-2</text>
<line x1="80.000" y1="325.000" x2="470.000" y2="325.000" stroke="#e8ecf1" stroke-width="1"/>
<text x="70.000" y="330.000" font-size="14" fill="#243248" text-anchor="end" font-weight="normal">0</text>
<line x1="80.000" y1="147.727" x2="470.000" y2="147.727" stroke="#e8ecf1" stroke-width="1"/>
<text x="70.000" y="152.727" font-size="14" fill="#243248" text-anchor="end" font-weight="normal">2</text>
<line x1="80.000" y1="520.000" x2="470.000" y2="520.000" stroke="#566277" stroke-width="1.4"/>
<line x1="80.000" y1="130.000" x2="80.000" y2="520.000" stroke="#566277" stroke-width="1.4"/>
<line x1="275.000" y1="130.000" x2="275.000" y2="520.000" stroke="#b6bec9" stroke-width="1.2"/>
<line x1="80.000" y1="325.000" x2="470.000" y2="325.000" stroke="#b6bec9" stroke-width="1.2"/>
<text x="275.000" y="570.000" font-size="16" fill="#243248" text-anchor="middle" font-weight="normal">x</text>
<text x="80.000" y="118.000" font-size="16" fill="#243248" text-anchor="start" font-weight="normal">y</text>
<text x="275.000" y="80.000" font-size="21" fill="#2563a6" text-anchor="middle" font-weight="bold">R = Exp(theta)</text>
<polyline points="363.636,325.000 363.623,323.453 363.582,321.907 363.515,320.361 363.420,318.817 363.299,317.275 363.151,315.735 362.976,314.198 362.774,312.664 362.545,311.134 362.290,309.608 362.008,308.087 361.699,306.571 361.365,305.061 361.003,303.557 360.616,302.059 360.203,300.569 359.763,299.085 359.298,297.610 358.807,296.143 358.291,294.685 357.749,293.236 357.182,291.796 356.590,290.367 355.973,288.948 355.332,287.541 354.666,286.144 353.976,284.760 353.261,283.388 352.523,282.028 351.761,280.682 350.976,279.349 350.168,278.030 349.337,276.725 348.483,275.435 347.607,274.160 346.708,272.901 345.788,271.657 344.846,270.430 343.883,269.219 342.899,268.026 341.895,266.849 340.870,265.691 339.825,264.550 338.760,263.428 337.675,262.325 336.572,261.240 335.450,260.175 334.309,259.130 333.151,258.105 331.974,257.101 330.781,256.117 329.570,255.154 328.343,254.212 327.099,253.292 325.840,252.393 324.565,251.517 323.275,250.663 321.970,249.832 320.651,249.024 319.318,248.239 317.972,247.477 316.612,246.739 315.240,246.024 313.856,245.334 312.459,244.668 311.052,244.027 309.633,243.410 308.204,242.818 306.764,242.251 305.315,241.709 303.857,241.193 302.390,240.702 300.915,240.237 299.431,239.797 297.941,239.384 296.443,238.997 294.939,238.635 293.429,238.301 291.913,237.992 290.392,237.710 288.866,237.455 287.336,237.226 285.802,237.024 284.265,236.849 282.725,236.701 281.183,236.580 279.639,236.485 278.093,236.418 276.547,236.377 275.000,236.364 273.453,236.377 271.907,236.418 270.361,236.485 268.817,236.580 267.275,236.701 265.735,236.849 264.198,237.024 262.664,237.226 261.134,237.455 259.608,237.710 258.087,237.992 256.571,238.301 255.061,238.635 253.557,238.997 252.059,239.384 250.569,239.797 249.085,240.237 247.610,240.702 246.143,241.193 244.685,241.709 243.236,242.251 241.796,242.818 240.367,243.410 238.948,244.027 237.541,244.668 236.144,245.334 234.760,246.024 233.388,246.739 232.028,247.477 230.682,248.239 229.349,249.024 228.030,249.832 226.725,250.663 225.435,251.517 224.160,252.393 222.901,253.292 221.657,254.212 220.430,255.154 219.219,256.117 218.026,257.101 216.849,258.105 215.691,259.130 214.550,260.175 213.428,261.240 212.325,262.325 211.240,263.428 210.175,264.550 209.130,265.691 208.105,266.849 207.101,268.026 206.117,269.219 205.154,270.430 204.212,271.657 203.292,272.901 202.393,274.160 201.517,275.435 200.663,276.725 199.832,278.030 199.024,279.349 198.239,280.682 197.477,282.028 196.739,283.388 196.024,284.760 195.334,286.144 194.668,287.541 194.027,288.948 193.410,290.367 192.818,291.796 192.251,293.236 191.709,294.685 191.193,296.143 190.702,297.610 190.237,299.085 189.797,300.569 189.384,302.059 188.997,303.557 188.635,305.061 188.301,306.571 187.992,308.087 187.710,309.608 187.455,311.134 187.226,312.664 187.024,314.198 186.849,315.735 186.701,317.275 186.580,318.817 186.485,320.361 186.418,321.907 186.377,323.453 186.364,325.000 186.377,326.547 186.418,328.093 186.485,329.639 186.580,331.183 186.701,332.725 186.849,334.265 187.024,335.802 187.226,337.336 187.455,338.866 187.710,340.392 187.992,341.913 188.301,343.429 188.635,344.939 188.997,346.443 189.384,347.941 189.797,349.431 190.237,350.915 190.702,352.390 191.193,353.857 191.709,355.315 192.251,356.764 192.818,358.204 193.410,359.633 194.027,361.052 194.668,362.459 195.334,363.856 196.024,365.240 196.739,366.612 197.477,367.972 198.239,369.318 199.024,370.651 199.832,371.970 200.663,373.275 201.517,374.565 202.393,375.840 203.292,377.099 204.212,378.343 205.154,379.570 206.117,380.781 207.101,381.974 208.105,383.151 209.130,384.309 210.175,385.450 211.240,386.572 212.325,387.675 213.428,388.760 214.550,389.825 215.691,390.870 216.849,391.895 218.026,392.899 219.219,393.883 220.430,394.846 221.657,395.788 222.901,396.708 224.160,397.607 225.435,398.483 226.725,399.337 228.030,400.168 229.349,400.976 230.682,401.761 232.028,402.523 233.388,403.261 234.760,403.976 236.144,404.666 237.541,405.332 238.948,405.973 240.367,406.590 241.796,407.182 243.236,407.749 244.685,408.291 246.143,408.807 247.610,409.298 249.085,409.763 250.569,410.203 252.059,410.616 253.557,411.003 255.061,411.365 256.571,411.699 258.087,412.008 259.608,412.290 261.134,412.545 262.664,412.774 264.198,412.976 265.735,413.151 267.275,413.299 268.817,413.420 270.361,413.515 271.907,413.582 273.453,413.623 275.000,413.636 276.547,413.623 278.093,413.582 279.639,413.515 281.183,413.420 282.725,413.299 284.265,413.151 285.802,412.976 287.336,412.774 288.866,412.545 290.392,412.290 291.913,412.008 293.429,411.699 294.939,411.365 296.443,411.003 297.941,410.616 299.431,410.203 300.915,409.763 302.390,409.298 303.857,408.807 305.315,408.291 306.764,407.749 308.204,407.182 309.633,406.590 311.052,405.973 312.459,405.332 313.856,404.666 315.240,403.976 316.612,403.261 317.972,402.523 319.318,401.761 320.651,400.976 321.970,400.168 323.275,399.337 324.565,398.483 325.840,397.607 327.099,396.708 328.343,395.788 329.570,394.846 330.781,393.883 331.974,392.899 333.151,391.895 334.309,390.870 335.450,389.825 336.572,388.760 337.675,387.675 338.760,386.572 339.825,385.450 340.870,384.309 341.895,383.151 342.899,381.974 343.883,380.781 344.846,379.570 345.788,378.343 346.708,377.099 347.607,375.840 348.483,374.565 349.337,373.275 350.168,371.970 350.976,370.651 351.761,369.318 352.523,367.972 353.261,366.612 353.976,365.240 354.666,363.856 355.332,362.459 355.973,361.052 356.590,359.633 357.182,358.204 357.749,356.764 358.291,355.315 358.807,353.857 359.298,352.390 359.763,350.915 360.203,349.431 360.616,347.941 361.003,346.443 361.365,344.939 361.699,343.429 362.008,341.913 362.290,340.392 362.545,338.866 362.774,337.336 362.976,335.802 363.151,334.265 363.299,332.725 363.420,331.183 363.515,329.639 363.582,328.093 363.623,326.547 363.636,325.000" fill="none" stroke="#667085" stroke-width="2" stroke-dasharray="5 5"/>
<polyline points="275.000,236.364 273.453,236.377 271.907,236.418 270.361,236.485 268.817,236.580 267.275,236.701 265.735,236.849 264.198,237.024 262.664,237.226 261.134,237.455 259.608,237.710 258.087,237.992 256.571,238.301 255.061,238.635 253.557,238.997 252.059,239.384 250.569,239.797 249.085,240.237 247.610,240.702 246.143,241.193 244.685,241.709 243.236,242.251 241.796,242.818 240.367,243.410 238.948,244.027 237.541,244.668 236.144,245.334 234.760,246.024 233.388,246.739 232.028,247.477 230.682,248.239 229.349,249.024 228.030,249.832 226.725,250.663 225.435,251.517 224.160,252.393 222.901,253.292 221.657,254.212 220.430,255.154 219.219,256.117 218.026,257.101 216.849,258.105 215.691,259.130 214.550,260.175 213.428,261.240 212.325,262.325 211.240,263.428 210.175,264.550 209.130,265.691 208.105,266.849 207.101,268.026 206.117,269.219 205.154,270.430 204.212,271.657 203.292,272.901 202.393,274.160 201.517,275.435 200.663,276.725 199.832,278.030 199.024,279.349 198.239,280.682 197.477,282.028 196.739,283.388 196.024,284.760 195.334,286.144 194.668,287.541 194.027,288.948 193.410,290.367 192.818,291.796 192.251,293.236 191.709,294.685 191.193,296.143 190.702,297.610 190.237,299.085 189.797,300.569 189.384,302.059 188.997,303.557 188.635,305.061 188.301,306.571 187.992,308.087 187.710,309.608 187.455,311.134 187.226,312.664 187.024,314.198 186.849,315.735 186.701,317.275 186.580,318.817 186.485,320.361 186.418,321.907 186.377,323.453 186.364,325.000 186.377,326.547 186.418,328.093 186.485,329.639 186.580,331.183 186.701,332.725 186.849,334.265 187.024,335.802 187.226,337.336 187.455,338.866 187.710,340.392 187.992,341.913 188.301,343.429 188.635,344.939 188.997,346.443 189.384,347.941 189.797,349.431 190.237,350.915 190.702,352.390 191.193,353.857 191.709,355.315 192.251,356.764 192.818,358.204 193.410,359.633 194.027,361.052 194.668,362.459 195.334,363.856 196.024,365.240 196.739,366.612 197.477,367.972 198.239,369.318 199.024,370.651 199.832,371.970 200.663,373.275 201.517,374.565 202.393,375.840 203.292,377.099 204.212,378.343 205.154,379.570 206.117,380.781 207.101,381.974 208.105,383.151 209.130,384.309 210.175,385.450 211.240,386.572 212.325,387.675 213.428,388.760 214.550,389.825 215.691,390.870 216.849,391.895 218.026,392.899 219.219,393.883 220.430,394.846 221.657,395.788 222.901,396.708 224.160,397.607 225.435,398.483 226.725,399.337 228.030,400.168 229.349,400.976 230.682,401.761 232.028,402.523 233.388,403.261 234.760,403.976 236.144,404.666 237.541,405.332 238.948,405.973 240.367,406.590 241.796,407.182 243.236,407.749 244.685,408.291 246.143,408.807 247.610,409.298 249.085,409.763 250.569,410.203 252.059,410.616 253.557,411.003 255.061,411.365 256.571,411.699 258.087,412.008 259.608,412.290 261.134,412.545 262.664,412.774 264.198,412.976 265.735,413.151 267.275,413.299 268.817,413.420 270.361,413.515 271.907,413.582 273.453,413.623 275.000,413.636 276.547,413.623 278.093,413.582 279.639,413.515 281.183,413.420 282.725,413.299 284.265,413.151 285.802,412.976 287.336,412.774 288.866,412.545 290.392,412.290 291.913,412.008 293.429,411.699 294.939,411.365 296.443,411.003 297.941,410.616 299.431,410.203 300.915,409.763 302.390,409.298 303.857,408.807 305.315,408.291 306.764,407.749 308.204,407.182 309.633,406.590 311.052,405.973 312.459,405.332 313.856,404.666 315.240,403.976 316.612,403.261 317.972,402.523 319.318,401.761 320.651,400.976 321.970,400.168 323.275,399.337 324.565,398.483 325.840,397.607 327.099,396.708 328.343,395.788 329.570,394.846 330.781,393.883 331.974,392.899 333.151,391.895 334.309,390.870 335.450,389.825 336.572,388.760 337.675,387.675 338.760,386.572 339.825,385.450 340.870,384.309 341.895,383.151 342.899,381.974 343.883,380.781 344.846,379.570 345.788,378.343 346.708,377.099 347.607,375.840 348.483,374.565 349.337,373.275 350.168,371.970 350.976,370.651 351.761,369.318 352.523,367.972 353.261,366.612 353.976,365.240 354.666,363.856 355.332,362.459 355.973,361.052 356.590,359.633 357.182,358.204 357.749,356.764 358.291,355.315 358.807,353.857 359.298,352.390 359.763,350.915 360.203,349.431 360.616,347.941 361.003,346.443 361.365,344.939 361.699,343.429 362.008,341.913 362.290,340.392 362.545,338.866 362.774,337.336 362.976,335.802 363.151,334.265 363.299,332.725 363.420,331.183 363.515,329.639 363.582,328.093 363.623,326.547 363.636,325.000 363.623,323.453 363.582,321.907 363.515,320.361 363.420,318.817 363.299,317.275 363.151,315.735 362.976,314.198 362.774,312.664 362.545,311.134 362.290,309.608 362.008,308.087 361.699,306.571 361.365,305.061 361.003,303.557 360.616,302.059 360.203,300.569 359.763,299.085 359.298,297.610 358.807,296.143 358.291,294.685 357.749,293.236 357.182,291.796 356.590,290.367 355.973,288.948 355.332,287.541 354.666,286.144 353.976,284.760 353.261,283.388 352.523,282.028 351.761,280.682 350.976,279.349 350.168,278.030 349.337,276.725 348.483,275.435 347.607,274.160 346.708,272.901 345.788,271.657 344.846,270.430 343.883,269.219 342.899,268.026 341.895,266.849 340.870,265.691 339.825,264.550 338.760,263.428 337.675,262.325 336.572,261.240 335.450,260.175 334.309,259.130 333.151,258.105 331.974,257.101 330.781,256.117 329.570,255.154 328.343,254.212 327.099,253.292 325.840,252.393 324.565,251.517 323.275,250.663 321.970,249.832 320.651,249.024 319.318,248.239 317.972,247.477 316.612,246.739 315.240,246.024 313.856,245.334 312.459,244.668 311.052,244.027 309.633,243.410 308.204,242.818 306.764,242.251 305.315,241.709 303.857,241.193 302.390,240.702 300.915,240.237 299.431,239.797 297.941,239.384 296.443,238.997 294.939,238.635 293.429,238.301 291.913,237.992 290.392,237.710 288.866,237.455 287.336,237.226 285.802,237.024 284.265,236.849 282.725,236.701 281.183,236.580 279.639,236.485 278.093,236.418 276.547,236.377 275.000,236.364" fill="none" stroke="#2563a6" stroke-width="3"/>
<line x1="275.000" y1="325.000" x2="275.000" y2="236.364" stroke="#2563a6" stroke-width="3"/>
<polygon points="275.000,236.364 278.915,244.468 271.085,244.468" fill="#2563a6"/>
<text x="275.000" y="610.000" font-size="18" fill="#2563a6" text-anchor="middle" font-weight="normal">Length = 1.000</text>
<line x1="637.727" y1="130.000" x2="637.727" y2="520.000" stroke="#e8ecf1" stroke-width="1"/>
<text x="637.727" y="544.000" font-size="14" fill="#243248" text-anchor="middle" font-weight="normal">-2</text>
<line x1="815.000" y1="130.000" x2="815.000" y2="520.000" stroke="#e8ecf1" stroke-width="1"/>
<text x="815.000" y="544.000" font-size="14" fill="#243248" text-anchor="middle" font-weight="normal">0</text>
<line x1="992.273" y1="130.000" x2="992.273" y2="520.000" stroke="#e8ecf1" stroke-width="1"/>
<text x="992.273" y="544.000" font-size="14" fill="#243248" text-anchor="middle" font-weight="normal">2</text>
<line x1="620.000" y1="502.273" x2="1010.000" y2="502.273" stroke="#e8ecf1" stroke-width="1"/>
<text x="610.000" y="507.273" font-size="14" fill="#243248" text-anchor="end" font-weight="normal">-2</text>
<line x1="620.000" y1="325.000" x2="1010.000" y2="325.000" stroke="#e8ecf1" stroke-width="1"/>
<text x="610.000" y="330.000" font-size="14" fill="#243248" text-anchor="end" font-weight="normal">0</text>
<line x1="620.000" y1="147.727" x2="1010.000" y2="147.727" stroke="#e8ecf1" stroke-width="1"/>
<text x="610.000" y="152.727" font-size="14" fill="#243248" text-anchor="end" font-weight="normal">2</text>
<line x1="620.000" y1="520.000" x2="1010.000" y2="520.000" stroke="#566277" stroke-width="1.4"/>
<line x1="620.000" y1="130.000" x2="620.000" y2="520.000" stroke="#566277" stroke-width="1.4"/>
<line x1="815.000" y1="130.000" x2="815.000" y2="520.000" stroke="#b6bec9" stroke-width="1.2"/>
<line x1="620.000" y1="325.000" x2="1010.000" y2="325.000" stroke="#b6bec9" stroke-width="1.2"/>
<text x="815.000" y="570.000" font-size="16" fill="#243248" text-anchor="middle" font-weight="normal">x</text>
<text x="620.000" y="118.000" font-size="16" fill="#243248" text-anchor="start" font-weight="normal">y</text>
<text x="815.000" y="80.000" font-size="21" fill="#c74b35" text-anchor="middle" font-weight="bold">L = I + [theta]x</text>
<polyline points="903.636,325.000 903.623,323.453 903.582,321.907 903.515,320.361 903.420,318.817 903.299,317.275 903.151,315.735 902.976,314.198 902.774,312.664 902.545,311.134 902.290,309.608 902.008,308.087 901.699,306.571 901.365,305.061 901.003,303.557 900.616,302.059 900.203,300.569 899.763,299.085 899.298,297.610 898.807,296.143 898.291,294.685 897.749,293.236 897.182,291.796 896.590,290.367 895.973,288.948 895.332,287.541 894.666,286.144 893.976,284.760 893.261,283.388 892.523,282.028 891.761,280.682 890.976,279.349 890.168,278.030 889.337,276.725 888.483,275.435 887.607,274.160 886.708,272.901 885.788,271.657 884.846,270.430 883.883,269.219 882.899,268.026 881.895,266.849 880.870,265.691 879.825,264.550 878.760,263.428 877.675,262.325 876.572,261.240 875.450,260.175 874.309,259.130 873.151,258.105 871.974,257.101 870.781,256.117 869.570,255.154 868.343,254.212 867.099,253.292 865.840,252.393 864.565,251.517 863.275,250.663 861.970,249.832 860.651,249.024 859.318,248.239 857.972,247.477 856.612,246.739 855.240,246.024 853.856,245.334 852.459,244.668 851.052,244.027 849.633,243.410 848.204,242.818 846.764,242.251 845.315,241.709 843.857,241.193 842.390,240.702 840.915,240.237 839.431,239.797 837.941,239.384 836.443,238.997 834.939,238.635 833.429,238.301 831.913,237.992 830.392,237.710 828.866,237.455 827.336,237.226 825.802,237.024 824.265,236.849 822.725,236.701 821.183,236.580 819.639,236.485 818.093,236.418 816.547,236.377 815.000,236.364 813.453,236.377 811.907,236.418 810.361,236.485 808.817,236.580 807.275,236.701 805.735,236.849 804.198,237.024 802.664,237.226 801.134,237.455 799.608,237.710 798.087,237.992 796.571,238.301 795.061,238.635 793.557,238.997 792.059,239.384 790.569,239.797 789.085,240.237 787.610,240.702 786.143,241.193 784.685,241.709 783.236,242.251 781.796,242.818 780.367,243.410 778.948,244.027 777.541,244.668 776.144,245.334 774.760,246.024 773.388,246.739 772.028,247.477 770.682,248.239 769.349,249.024 768.030,249.832 766.725,250.663 765.435,251.517 764.160,252.393 762.901,253.292 761.657,254.212 760.430,255.154 759.219,256.117 758.026,257.101 756.849,258.105 755.691,259.130 754.550,260.175 753.428,261.240 752.325,262.325 751.240,263.428 750.175,264.550 749.130,265.691 748.105,266.849 747.101,268.026 746.117,269.219 745.154,270.430 744.212,271.657 743.292,272.901 742.393,274.160 741.517,275.435 740.663,276.725 739.832,278.030 739.024,279.349 738.239,280.682 737.477,282.028 736.739,283.388 736.024,284.760 735.334,286.144 734.668,287.541 734.027,288.948 733.410,290.367 732.818,291.796 732.251,293.236 731.709,294.685 731.193,296.143 730.702,297.610 730.237,299.085 729.797,300.569 729.384,302.059 728.997,303.557 728.635,305.061 728.301,306.571 727.992,308.087 727.710,309.608 727.455,311.134 727.226,312.664 727.024,314.198 726.849,315.735 726.701,317.275 726.580,318.817 726.485,320.361 726.418,321.907 726.377,323.453 726.364,325.000 726.377,326.547 726.418,328.093 726.485,329.639 726.580,331.183 726.701,332.725 726.849,334.265 727.024,335.802 727.226,337.336 727.455,338.866 727.710,340.392 727.992,341.913 728.301,343.429 728.635,344.939 728.997,346.443 729.384,347.941 729.797,349.431 730.237,350.915 730.702,352.390 731.193,353.857 731.709,355.315 732.251,356.764 732.818,358.204 733.410,359.633 734.027,361.052 734.668,362.459 735.334,363.856 736.024,365.240 736.739,366.612 737.477,367.972 738.239,369.318 739.024,370.651 739.832,371.970 740.663,373.275 741.517,374.565 742.393,375.840 743.292,377.099 744.212,378.343 745.154,379.570 746.117,380.781 747.101,381.974 748.105,383.151 749.130,384.309 750.175,385.450 751.240,386.572 752.325,387.675 753.428,388.760 754.550,389.825 755.691,390.870 756.849,391.895 758.026,392.899 759.219,393.883 760.430,394.846 761.657,395.788 762.901,396.708 764.160,397.607 765.435,398.483 766.725,399.337 768.030,400.168 769.349,400.976 770.682,401.761 772.028,402.523 773.388,403.261 774.760,403.976 776.144,404.666 777.541,405.332 778.948,405.973 780.367,406.590 781.796,407.182 783.236,407.749 784.685,408.291 786.143,408.807 787.610,409.298 789.085,409.763 790.569,410.203 792.059,410.616 793.557,411.003 795.061,411.365 796.571,411.699 798.087,412.008 799.608,412.290 801.134,412.545 802.664,412.774 804.198,412.976 805.735,413.151 807.275,413.299 808.817,413.420 810.361,413.515 811.907,413.582 813.453,413.623 815.000,413.636 816.547,413.623 818.093,413.582 819.639,413.515 821.183,413.420 822.725,413.299 824.265,413.151 825.802,412.976 827.336,412.774 828.866,412.545 830.392,412.290 831.913,412.008 833.429,411.699 834.939,411.365 836.443,411.003 837.941,410.616 839.431,410.203 840.915,409.763 842.390,409.298 843.857,408.807 845.315,408.291 846.764,407.749 848.204,407.182 849.633,406.590 851.052,405.973 852.459,405.332 853.856,404.666 855.240,403.976 856.612,403.261 857.972,402.523 859.318,401.761 860.651,400.976 861.970,400.168 863.275,399.337 864.565,398.483 865.840,397.607 867.099,396.708 868.343,395.788 869.570,394.846 870.781,393.883 871.974,392.899 873.151,391.895 874.309,390.870 875.450,389.825 876.572,388.760 877.675,387.675 878.760,386.572 879.825,385.450 880.870,384.309 881.895,383.151 882.899,381.974 883.883,380.781 884.846,379.570 885.788,378.343 886.708,377.099 887.607,375.840 888.483,374.565 889.337,373.275 890.168,371.970 890.976,370.651 891.761,369.318 892.523,367.972 893.261,366.612 893.976,365.240 894.666,363.856 895.332,362.459 895.973,361.052 896.590,359.633 897.182,358.204 897.749,356.764 898.291,355.315 898.807,353.857 899.298,352.390 899.763,350.915 900.203,349.431 900.616,347.941 901.003,346.443 901.365,344.939 901.699,343.429 902.008,341.913 902.290,340.392 902.545,338.866 902.774,337.336 902.976,335.802 903.151,334.265 903.299,332.725 903.420,331.183 903.515,329.639 903.582,328.093 903.623,326.547 903.636,325.000" fill="none" stroke="#667085" stroke-width="2" stroke-dasharray="5 5"/>
<polyline points="903.636,185.770 901.193,184.245 898.723,182.762 896.228,181.322 893.708,179.927 891.164,178.575 888.597,177.268 886.008,176.006 883.397,174.790 880.765,173.619 878.113,172.494 875.442,171.416 872.752,170.384 870.045,169.400 867.321,168.463 864.581,167.574 861.826,166.732 859.057,165.939 856.274,165.195 853.479,164.499 850.672,163.851 847.854,163.253 845.026,162.705 842.189,162.205 839.344,161.756 836.491,161.356 833.632,161.006 830.767,160.705 827.897,160.455 825.023,160.255 822.147,160.105 819.268,160.006 816.387,159.956 813.507,159.957 810.627,160.009 807.748,160.110 804.871,160.262 801.998,160.464 799.128,160.716 796.263,161.018 793.404,161.370 790.552,161.771 787.707,162.223 784.870,162.724 782.043,163.275 779.225,163.874 776.419,164.523 773.624,165.221 770.841,165.968 768.073,166.762 765.318,167.605 762.579,168.497 759.856,169.435 757.149,170.421 754.460,171.455 751.789,172.534 749.138,173.661 746.507,174.833 743.897,176.052 741.308,177.315 738.742,178.624 736.199,179.977 733.680,181.374 731.186,182.815 728.717,184.300 726.274,185.827 723.859,187.397 721.471,189.008 719.112,190.661 716.782,192.355 714.482,194.090 712.213,195.864 709.975,197.677 707.769,199.530 705.595,201.420 703.455,203.349 701.349,205.314 699.278,207.316 697.241,209.353 695.241,211.426 693.277,213.533 691.350,215.675 689.461,217.849 687.610,220.056 685.798,222.296 684.025,224.566 682.292,226.867 680.600,229.198 678.949,231.559 677.338,233.947 675.770,236.364 674.245,238.807 672.762,241.277 671.322,243.772 669.927,246.292 668.575,248.836 667.268,251.403 666.006,253.992 664.790,256.603 663.619,259.235 662.494,261.887 661.416,264.558 660.384,267.248 659.400,269.955 658.463,272.679 657.574,275.419 656.732,278.174 655.939,280.943 655.195,283.726 654.499,286.521 653.851,289.328 653.253,292.146 652.705,294.974 652.205,297.811 651.756,300.656 651.356,303.509 651.006,306.368 650.705,309.233 650.455,312.103 650.255,314.977 650.105,317.853 650.006,320.732 649.956,323.613 649.957,326.493 650.009,329.373 650.110,332.252 650.262,335.129 650.464,338.002 650.716,340.872 651.018,343.737 651.370,346.596 651.771,349.448 652.223,352.293 652.724,355.130 653.275,357.957 653.874,360.775 654.523,363.581 655.221,366.376 655.968,369.159 656.762,371.927 657.605,374.682 658.497,377.421 659.435,380.144 660.421,382.851 661.455,385.540 662.534,388.211 663.661,390.862 664.833,393.493 666.052,396.103 667.315,398.692 668.624,401.258 669.977,403.801 671.374,406.320 672.815,408.814 674.300,411.283 675.827,413.726 677.397,416.141 679.008,418.529 680.661,420.888 682.355,423.218 684.090,425.518 685.864,427.787 687.677,430.025 689.530,432.231 691.420,434.405 693.349,436.545 695.314,438.651 697.316,440.722 699.353,442.759 701.426,444.759 703.533,446.723 705.675,448.650 707.849,450.539 710.056,452.390 712.296,454.202 714.566,455.975 716.867,457.708 719.198,459.400 721.559,461.051 723.947,462.662 726.364,464.230 728.807,465.755 731.277,467.238 733.772,468.678 736.292,470.073 738.836,471.425 741.403,472.732 743.992,473.994 746.603,475.210 749.235,476.381 751.887,477.506 754.558,478.584 757.248,479.616 759.955,480.600 762.679,481.537 765.419,482.426 768.174,483.268 770.943,484.061 773.726,484.805 776.521,485.501 779.328,486.149 782.146,486.747 784.974,487.295 787.811,487.795 790.656,488.244 793.509,488.644 796.368,488.994 799.233,489.295 802.103,489.545 804.977,489.745 807.853,489.895 810.732,489.994 813.613,490.044 816.493,490.043 819.373,489.991 822.252,489.890 825.129,489.738 828.002,489.536 830.872,489.284 833.737,488.982 836.596,488.630 839.448,488.229 842.293,487.777 845.130,487.276 847.957,486.725 850.775,486.126 853.581,485.477 856.376,484.779 859.159,484.032 861.927,483.238 864.682,482.395 867.421,481.503 870.144,480.565 872.851,479.579 875.540,478.545 878.211,477.466 880.862,476.339 883.493,475.167 886.103,473.948 888.692,472.685 891.258,471.376 893.801,470.023 896.320,468.626 898.814,467.185 901.283,465.700 903.726,464.173 906.141,462.603 908.529,460.992 910.888,459.339 913.218,457.645 915.518,455.910 917.787,454.136 920.025,452.323 922.231,450.470 924.405,448.580 926.545,446.651 928.651,444.686 930.722,442.684 932.759,440.647 934.759,438.574 936.723,436.467 938.650,434.325 940.539,432.151 942.390,429.944 944.202,427.704 945.975,425.434 947.708,423.133 949.400,420.802 951.051,418.441 952.662,416.053 954.230,413.636 955.755,411.193 957.238,408.723 958.678,406.228 960.073,403.708 961.425,401.164 962.732,398.597 963.994,396.008 965.210,393.397 966.381,390.765 967.506,388.113 968.584,385.442 969.616,382.752 970.600,380.045 971.537,377.321 972.426,374.581 973.268,371.826 974.061,369.057 974.805,366.274 975.501,363.479 976.149,360.672 976.747,357.854 977.295,355.026 977.795,352.189 978.244,349.344 978.644,346.491 978.994,343.632 979.295,340.767 979.545,337.897 979.745,335.023 979.895,332.147 979.994,329.268 980.044,326.387 980.043,323.507 979.991,320.627 979.890,317.748 979.738,314.871 979.536,311.998 979.284,309.128 978.982,306.263 978.630,303.404 978.229,300.552 977.777,297.707 977.276,294.870 976.725,292.043 976.126,289.225 975.477,286.419 974.779,283.624 974.032,280.841 973.238,278.073 972.395,275.318 971.503,272.579 970.565,269.856 969.579,267.149 968.545,264.460 967.466,261.789 966.339,259.138 965.167,256.507 963.948,253.897 962.685,251.308 961.376,248.742 960.023,246.199 958.626,243.680 957.185,241.186 955.700,238.717 954.173,236.274 952.603,233.859 950.992,231.471 949.339,229.112 947.645,226.782 945.910,224.482 944.136,222.213 942.323,219.975 940.470,217.769 938.580,215.595 936.651,213.455 934.686,211.349 932.684,209.278 930.647,207.241 928.574,205.241 926.467,203.277 924.325,201.350 922.151,199.461 919.944,197.610 917.704,195.798 915.434,194.025 913.133,192.292 910.802,190.600 908.441,188.949 906.053,187.338 903.636,185.770" fill="none" stroke="#c74b35" stroke-width="3"/>
<line x1="815.000" y1="325.000" x2="903.636" y2="185.770" stroke="#c74b35" stroke-width="3"/>
<polygon points="903.636,185.770 902.587,194.709 895.982,190.504" fill="#c74b35"/>
<text x="815.000" y="610.000" font-size="18" fill="#c74b35" text-anchor="middle" font-weight="normal">Length = 1.862</text>
</svg>
